<svg width="55" height="55" viewBox="0 0 55 55" fill="none" xmlns="http://www.w3.org/2000/svg">
<g clip-path="url(#clip0_44_387)">
<path d="M30.0471 1.15134C29.3897 0.44966 28.4614 0.0473633 27.5 0.0473633C26.5387 0.0473633 25.6103 0.449768 24.9529 1.15134C24.2955 1.85292 23.9543 2.80554 24.017 3.76504L24.1925 6.45554C24.1925 6.45565 24.1925 6.45565 24.1925 6.45565C24.262 7.51946 24.8236 8.49249 25.6949 9.05861C26.2432 9.41493 26.8717 9.59293 27.5001 9.59293C28.1286 9.59293 28.7572 9.41482 29.3053 9.05871C30.1765 8.4926 30.7382 7.51957 30.8076 6.45565L30.9831 3.76504C31.0457 2.80565 30.7046 1.85303 30.0471 1.15134ZM28.7967 3.62249L28.6212 6.31289C28.5966 6.69048 28.4061 7.02993 28.1117 7.22125C27.74 7.46263 27.2602 7.46242 26.8887 7.22125C26.5943 7.02993 26.4039 6.69026 26.3791 6.31289L26.2036 3.62249C26.18 3.26016 26.3037 2.91458 26.552 2.64957C26.8003 2.38466 27.1369 2.23867 27.5 2.23867C27.8631 2.23867 28.1997 2.38466 28.448 2.64957C28.6966 2.91458 28.8203 3.26016 28.7967 3.62249Z" fill="black"/>
<path d="M36.1657 16.0276L35.8614 14.3471C35.4611 12.1381 33.711 10.3751 31.5064 9.9599C31.1735 9.89728 30.8333 9.86548 30.4948 9.86548H29.578C29.2875 9.86548 29.0088 9.98096 28.8033 10.1863C28.4553 10.5344 27.9925 10.7261 27.5001 10.7261C27.0076 10.7261 26.5449 10.5344 26.1968 10.1863C25.9913 9.98096 25.7127 9.86548 25.4221 9.86548H24.5053C24.167 9.86548 23.8266 9.89728 23.4937 9.9599C21.2891 10.3749 19.539 12.138 19.1387 14.3471L18.8344 16.0276C18.7765 16.347 18.8634 16.6759 19.0715 16.9251C19.2798 17.1743 19.5877 17.3185 19.9125 17.3185H35.0877C35.4125 17.3185 35.7205 17.1744 35.9285 16.9251C36.1366 16.6759 36.2235 16.3471 36.1657 16.0276ZM21.2245 15.1271L21.295 14.7376C21.5345 13.4161 22.5812 12.3614 23.8995 12.1132C24.0988 12.0756 24.3027 12.0566 24.5055 12.0566H25.0085C25.7163 12.6145 26.5849 12.9174 27.5002 12.9174C28.4153 12.9174 29.284 12.6146 29.9918 12.0566H30.4948C30.6975 12.0566 30.9015 12.0756 31.1009 12.1132C32.4193 12.3614 33.4658 13.4161 33.7053 14.7376L33.7759 15.1271H21.2245Z" fill="black"/>
<path d="M30.0471 38.7854C29.3897 38.0837 28.4614 37.6814 27.5 37.6814C26.5387 37.6814 25.6103 38.0838 24.9529 38.7854C24.2955 39.4871 23.9543 40.4397 24.017 41.3991L24.1925 44.0897C24.262 45.1536 24.8237 46.1266 25.6948 46.6926C26.2433 47.049 26.8716 47.227 27.5001 47.227C28.1285 47.227 28.7572 47.0489 29.3053 46.6926C30.1764 46.1266 30.7382 45.1535 30.8076 44.0896L30.9831 41.399C31.0457 40.4397 30.7046 39.4871 30.0471 38.7854ZM28.7967 41.2563L28.6212 43.9468C28.5966 44.3243 28.4061 44.6638 28.1116 44.8551C27.74 45.0964 27.2602 45.0964 26.8887 44.8551C26.5943 44.6638 26.4039 44.3242 26.3791 43.9468L26.2036 41.2564C26.18 40.894 26.3037 40.5484 26.552 40.2835C26.8002 40.0186 27.1369 39.8726 27.5 39.8726C27.8631 39.8726 28.1998 40.0186 28.448 40.2835C28.6966 40.5484 28.8203 40.894 28.7967 41.2563Z" fill="black"/>
<path d="M36.1656 53.6616L35.8613 51.9812C35.461 49.7721 33.7109 48.0091 31.5063 47.5939C31.1737 47.5313 30.8334 47.4995 30.4947 47.4995H29.5779C29.2874 47.4995 29.0087 47.615 28.8032 47.8204C28.0845 48.5391 26.9155 48.539 26.1968 47.8204C25.9913 47.615 25.7127 47.4995 25.4221 47.4995H24.5053C24.1672 47.4995 23.8269 47.5313 23.4937 47.5939C21.2891 48.0091 19.539 49.7721 19.1387 51.9813L18.8344 53.6617C18.7765 53.9812 18.8634 54.31 19.0715 54.5592C19.2798 54.8084 19.5877 54.9525 19.9125 54.9525H35.0877C35.4125 54.9525 35.7205 54.8084 35.9284 54.559C36.1365 54.3099 36.2234 53.9812 36.1656 53.6616ZM21.2245 52.7613L21.2949 52.3719C21.5345 51.0504 22.5811 49.9957 23.899 49.7474C24.0986 49.7098 24.3026 49.6908 24.5053 49.6908H25.0089C26.4656 50.8359 28.5349 50.8359 29.9913 49.6908H30.4949C30.6977 49.6908 30.9017 49.7098 31.101 49.7473C32.4194 49.9956 33.4659 51.0503 33.7054 52.3718L33.776 52.7613H21.2245Z" fill="black"/>
<path d="M11.2304 19.9686C10.573 19.2669 9.64464 18.8645 8.68321 18.8645C7.72177 18.8645 6.79321 19.2669 6.1359 19.9686C5.47858 20.6702 5.13751 21.6228 5.20014 22.5821L5.37567 25.2726C5.44506 26.3364 6.00667 27.3095 6.87797 27.8756C7.42636 28.2319 8.05489 28.41 8.68331 28.41C9.31173 28.41 9.94037 28.2319 10.4884 27.8757C11.3597 27.3096 11.9214 26.3365 11.9906 25.2728L12.1662 22.5822C12.2287 21.6229 11.8876 20.6701 11.2304 19.9686ZM9.9798 22.4394L9.80427 25.13C9.77977 25.5075 9.58931 25.8469 9.29476 26.0382C8.92319 26.2796 8.44333 26.2796 8.07186 26.0382C7.77731 25.8468 7.58696 25.5073 7.56225 25.13L7.38672 22.4394C7.36309 22.0771 7.48684 21.7315 7.73509 21.4666C7.98335 21.2016 8.32012 21.0556 8.68321 21.0556C9.04629 21.0556 9.38296 21.2017 9.63121 21.4666C9.87946 21.7315 10.0034 22.0771 9.9798 22.4394Z" fill="black"/>
<path d="M17.3486 34.8444L17.0443 33.164C16.644 30.955 14.8939 29.192 12.6893 28.7768C12.3566 28.7142 12.0163 28.6824 11.6775 28.6824H10.7608C10.4703 28.6824 10.1918 28.7979 9.98618 29.0032C9.26753 29.7219 8.09845 29.722 7.37979 29.0032C7.17429 28.7979 6.89564 28.6824 6.60506 28.6824H5.68821C5.35004 28.6824 5.00962 28.7142 4.67672 28.7768C2.47209 29.192 0.721958 30.955 0.321702 33.164L0.0173743 34.8444C-0.0405264 35.1639 0.0463784 35.4927 0.254456 35.742C0.462748 35.9912 0.770728 36.1352 1.09547 36.1352H16.2707C16.5955 36.1352 16.9034 35.9912 17.1114 35.742C17.3196 35.4927 17.4065 35.1641 17.3486 34.8444ZM2.40763 33.9441L2.4781 33.5546C2.71765 32.2332 3.76427 31.1784 5.08256 30.9302C5.28194 30.8926 5.48582 30.8736 5.68853 30.8736H6.1917C6.8995 31.4315 7.76823 31.7342 8.68336 31.7342C9.59849 31.7342 10.4672 31.4315 11.175 30.8736H11.678C11.8807 30.8736 12.0846 30.8926 12.2839 30.9302C13.6023 31.1784 14.6489 32.2332 14.8884 33.5546L14.959 33.9441H2.40763Z" fill="black"/>
<path d="M48.864 19.9685C48.2066 19.2668 47.2783 18.8645 46.3169 18.8645C45.3555 18.8645 44.4271 19.2669 43.7697 19.9686C43.1124 20.6702 42.7714 21.6229 42.834 22.5822L43.0095 25.2727C43.0789 26.3365 43.6404 27.3096 44.5117 27.8757C45.0602 28.2321 45.6885 28.4101 46.3171 28.4101C46.9454 28.4101 47.5741 28.232 48.1222 27.8757C48.9935 27.3096 49.5552 26.3365 49.6245 25.2727L49.8 22.5821C49.8626 21.6227 49.5215 20.6701 48.864 19.9685ZM47.6136 22.4394L47.4381 25.13C47.4136 25.5074 47.2231 25.8469 46.9285 26.0382C46.5573 26.2794 46.0773 26.2796 45.7056 26.0382C45.4112 25.8469 45.2208 25.5074 45.1961 25.13L45.0206 22.4394C44.9969 22.0771 45.1208 21.7315 45.3689 21.4666C45.6171 21.2017 45.9539 21.0557 46.3169 21.0557C46.6801 21.0557 47.0168 21.2017 47.265 21.4666C47.5135 21.7315 47.6372 22.0771 47.6136 22.4394Z" fill="black"/>
<path d="M54.9825 34.8444L54.6782 33.164C54.2779 30.955 52.5278 29.192 50.3232 28.7768C49.9903 28.7142 49.6501 28.6824 49.3116 28.6824H48.3947C48.1042 28.6824 47.8257 28.7979 47.6201 29.0032C46.9014 29.7219 45.7324 29.722 45.0137 29.0032C44.8082 28.7979 44.5295 28.6824 44.239 28.6824H43.3222C42.9837 28.6824 42.6434 28.7142 42.3107 28.7768C40.106 29.192 38.3559 30.955 37.9556 33.164L37.6513 34.8444C37.5934 35.1639 37.6803 35.4927 37.8884 35.742C38.0967 35.9912 38.4046 36.1352 38.7294 36.1352H53.9046C54.2294 36.1352 54.5374 35.9912 54.7453 35.742C54.9535 35.4927 55.0403 35.1641 54.9825 34.8444ZM40.0414 33.9441L40.112 33.5546C40.3515 32.2332 41.3981 31.1784 42.7166 30.9302C42.9158 30.8926 43.1196 30.8736 43.3224 30.8736H43.8254C44.5332 31.4315 45.4019 31.7342 46.3171 31.7342C47.2322 31.7342 48.1009 31.4315 48.8087 30.8736H49.3118C49.5144 30.8736 49.7184 30.8926 49.9178 30.9302C51.2362 31.1784 52.2827 32.2332 52.5222 33.5546L52.5928 33.9441H40.0414Z" fill="black"/>
<path d="M21.8093 7.1144C21.6154 6.5413 20.9937 6.23386 20.4203 6.42765C16.0807 7.8958 12.2153 10.7652 9.53622 14.5069C9.18409 14.9989 9.29731 15.6834 9.78931 16.0356C9.98256 16.174 10.2055 16.2405 10.4262 16.2405C10.7676 16.2405 11.1042 16.0813 11.3179 15.7825C13.7321 12.4108 17.2141 9.82564 21.1226 8.50327C21.6959 8.30937 22.0034 7.6875 21.8093 7.1144Z" fill="black"/>
<path d="M45.4972 14.5069C43.6111 11.8726 41.1224 9.64545 38.2995 8.06613C37.7718 7.77082 37.1039 7.95924 36.8085 8.48733C36.513 9.01542 36.7017 9.68294 37.2297 9.97846C39.773 11.4016 42.0158 13.4087 43.7156 15.7825C43.9294 16.0813 44.2659 16.2404 44.6074 16.2404C44.828 16.2404 45.0509 16.1739 45.2441 16.0355C45.7363 15.6832 45.8494 14.9987 45.4972 14.5069Z" fill="black"/>
<path d="M35.1784 6.62739C34.9921 6.55875 34.802 6.49139 34.6131 6.42759C34.0398 6.23337 33.4182 6.54113 33.224 7.11423C33.0302 7.68733 33.3377 8.3092 33.9108 8.5032C34.0807 8.56067 34.252 8.62126 34.4197 8.68324C34.5449 8.72943 34.673 8.75135 34.799 8.75135C35.2447 8.75135 35.6636 8.47731 35.8268 8.03473C36.0364 7.46701 35.7461 6.83697 35.1784 6.62739Z" fill="black"/>
<path d="M21.1227 45.3543C17.2142 44.0321 13.7322 41.4469 11.318 38.075C10.9657 37.5831 10.2813 37.4698 9.78938 37.822C9.29728 38.1744 9.18406 38.8588 9.5363 39.3508C12.2154 43.0926 16.0809 45.9619 20.4203 47.43C20.5368 47.4693 20.6552 47.4881 20.7716 47.4881C21.2285 47.4881 21.6548 47.2 21.8094 46.7433C22.0033 46.1702 21.6959 45.5483 21.1227 45.3543Z" fill="black"/>
<path d="M45.2442 37.8223C44.7522 37.47 44.0677 37.5835 43.7156 38.0752C41.3014 41.4471 37.8194 44.0322 33.9109 45.3544C33.3377 45.5483 33.0303 46.1702 33.2242 46.7434C33.3786 47.2001 33.8051 47.4881 34.262 47.4881C34.3783 47.4881 34.4968 47.4694 34.6131 47.4301C39.0155 45.9407 42.7792 43.147 45.4973 39.3509C45.8494 38.8589 45.7363 38.1745 45.2442 37.8223Z" fill="black"/>
</g>
<defs>
<clipPath id="clip0_44_387">
<rect width="55" height="55" fill="white"/>
</clipPath>
</defs>
</svg>
